<svg xmlns="http://www.w3.org/2000/svg" viewBox="0 0 311.98 289.66"><defs><style>.cls-1{fill:#efa30a;}.cls-2{font-size:72px;fill:#f9930d;stroke:#020504;stroke-miterlimit:10;stroke-width:0.25px;font-family:ScriptMTBold, Script MT Bold;}.cls-3{letter-spacing:-0.04em;}.cls-4{fill:#374189;}</style></defs><title>Recurso 2</title><g id="Capa_2" data-name="Capa 2"><g id="Capa_1-2" data-name="Capa 1"><rect class="cls-1" x="191.44" y="58.5" width="50.29" height="98.84"/><path class="cls-1" d="M241.23,59v97.84H191.94V59h49.29m1-1H190.94v99.84h51.29V58Z"/><rect class="cls-1" x="38.44" y="58.5" width="50.29" height="98.84"/><path class="cls-1" d="M88.23,59v97.84H38.94V59H88.23m1-1H37.94v99.84H89.23V58Z"/><rect class="cls-1" x="91.16" y="6.77" width="98.84" height="50.29"/><path class="cls-1" d="M189.5,7.27V56.57H91.66V7.27H189.5m1-1H90.66V57.57H190.5V6.27Z"/><rect class="cls-1" x="91.16" y="159.77" width="98.84" height="50.29"/><path class="cls-1" d="M189.5,160.27v49.29H91.66V160.27H189.5m1-1H90.66v51.29H190.5V159.27Z"/><text class="cls-2" transform="translate(0.13 271.39)">más<tspan class="cls-3" x="118.51" y="0">V</tspan><tspan x="164" y="0">entas</tspan></text><rect class="cls-1" x="33.44" y="0.5" width="50.29" height="48.92"/><path class="cls-4" d="M83.23,1V48.92H33.94V1H83.23m1-1H32.94V49.92H84.23V0Z"/><rect class="cls-1" x="197.44" y="167.5" width="50.29" height="48.92"/><path class="cls-4" d="M247.23,168v47.92H197.94V168h49.29m1-1H196.94v49.92h51.29V167Z"/></g></g></svg>