<svg id="Capa_1" data-name="Capa 1" xmlns="http://www.w3.org/2000/svg" viewBox="0 0 65.27 9.91"><defs><style>.cls-1{fill:#edf0f2;}</style></defs><title>Sin título-1</title><path class="cls-1" d="M180.63,101.5l1.63-7.63,1.78-.23-.85,4a1.5,1.5,0,0,0,.58-.16,2.25,2.25,0,0,0,.51-.36,2.76,2.76,0,0,0,.42-.51,3.7,3.7,0,0,0,.52-1.26,3.22,3.22,0,0,0,.07-.66,2.27,2.27,0,0,0-.08-.63,1.49,1.49,0,0,0-.26-.52,1.22,1.22,0,0,0-.46-.35,1.63,1.63,0,0,0-.68-.13,4,4,0,0,0-1.31.2,2.67,2.67,0,0,0-1,.57,2.47,2.47,0,0,0-.61.92,3.36,3.36,0,0,0-.21,1.23,2.13,2.13,0,0,0,0,.37,1.63,1.63,0,0,0,.06.23.83.83,0,0,0,.06.13.17.17,0,0,1,0,.08,2.23,2.23,0,0,1-.55-.06,1,1,0,0,1-.4-.2.85.85,0,0,1-.25-.36,1.55,1.55,0,0,1-.08-.55,1.91,1.91,0,0,1,.17-.79,2.93,2.93,0,0,1,.47-.73,4.16,4.16,0,0,1,.71-.64,5.23,5.23,0,0,1,1.85-.84,4.37,4.37,0,0,1,1-.12,3.69,3.69,0,0,1,1.27.2,2.56,2.56,0,0,1,.88.52,2,2,0,0,1,.51.75,2.44,2.44,0,0,1,.16.89,3,3,0,0,1-.24,1.15,3.25,3.25,0,0,1-.69,1,3.48,3.48,0,0,1-2.54,1h-.06l-.73,3.42Z" transform="translate(-179.57 -92.5)"/><path class="cls-1" d="M189.22,101.55a1.67,1.67,0,0,1-1.2-.39,1.52,1.52,0,0,1-.4-1.15,3.47,3.47,0,0,1,.11-.84l.82-3.25a2.2,2.2,0,0,0-.63.27,2,2,0,0,0-.46.4,1.6,1.6,0,0,0-.28.48,1.55,1.55,0,0,0-.09.53,1.53,1.53,0,0,0,.21.77,1,1,0,0,1-.71-.22.8.8,0,0,1-.25-.63,1.27,1.27,0,0,1,.11-.52,1.89,1.89,0,0,1,.31-.48,2.55,2.55,0,0,1,.48-.42,3.42,3.42,0,0,1,.62-.33,4,4,0,0,1,.71-.22,3.78,3.78,0,0,1,.77-.08h.24l.21,0-1,3.7a4.5,4.5,0,0,0-.1.47,2.54,2.54,0,0,0,0,.4q0,.76.63.76.89,0,1.24-1.65l.8-3.7h1.13l-.78,3.7a3.35,3.35,0,0,1-.88,1.78A2.21,2.21,0,0,1,189.22,101.55Z" transform="translate(-179.57 -92.5)"/><path class="cls-1" d="M197.85,95.52l-1.3,6h-1.11l-.93-4-.91,4h-.76L194,96a1.61,1.61,0,0,0-.83.61,1.74,1.74,0,0,0-.28,1,1.84,1.84,0,0,0,.06.47,1,1,0,0,0,.16.35,1.14,1.14,0,0,1-.76-.21.82.82,0,0,1-.24-.66,1.74,1.74,0,0,1,.09-.55,2,2,0,0,1,.25-.5,2.18,2.18,0,0,1,.38-.43,2.47,2.47,0,0,1,.49-.33,2.66,2.66,0,0,1,1.22-.29l.33,0,.31.08,1,4.28.89-4.34Z" transform="translate(-179.57 -92.5)"/><path class="cls-1" d="M198.71,101.5l1.13-5.3h-.09a2.32,2.32,0,0,0-.59.07,1.14,1.14,0,0,0-.48.25,1.21,1.21,0,0,0-.32.49,2.34,2.34,0,0,0-.12.8,1.42,1.42,0,0,0,0,.25,1.06,1.06,0,0,0,0,.15l0,.09a.12.12,0,0,1,0,.05,1.49,1.49,0,0,1-.37,0,.67.67,0,0,1-.27-.13.56.56,0,0,1-.16-.24,1,1,0,0,1-.06-.36,2.1,2.1,0,0,1,.15-.78,1.74,1.74,0,0,1,.47-.67,2.43,2.43,0,0,1,.85-.46,4,4,0,0,1,1.26-.18h.43l.35,0,.31,0,.29,0,.31,0h.36a2.56,2.56,0,0,0,.52-.05,2.39,2.39,0,0,0,.41-.12,1.09,1.09,0,0,1-.27.77,1,1,0,0,1-.73.24,3.42,3.42,0,0,1-.6-.05l-.64-.12-1.11,5.14Z" transform="translate(-179.57 -92.5)"/><path class="cls-1" d="M204.75,96.25a1.28,1.28,0,0,0-.36.34,3.62,3.62,0,0,0-.33.54,6.07,6.07,0,0,0-.29.68q-.13.37-.23.74a7.15,7.15,0,0,0-.15.74,4.74,4.74,0,0,0-.05.67,2.38,2.38,0,0,0,0,.37,1.17,1.17,0,0,0,.08.29.49.49,0,0,0,.14.19.34.34,0,0,0,.21.07.66.66,0,0,0,.4-.16,1.92,1.92,0,0,0,.39-.43,3.88,3.88,0,0,0,.35-.63,5.81,5.81,0,0,0,.28-.76,6.89,6.89,0,0,0,.19-.83,5.24,5.24,0,0,0,.07-.83,4,4,0,0,0,0-.61,1.12,1.12,0,0,0-.15-.44A.7.7,0,0,0,205,96a1.29,1.29,0,0,0-.52-.09,2.69,2.69,0,0,0-.87.14,2.28,2.28,0,0,0-.74.41,2,2,0,0,0-.51.65,1.91,1.91,0,0,0-.19.86,1,1,0,0,0,0,.19l0,.12,0,.07a.11.11,0,0,1,0,.05,1,1,0,0,1-.6-.15.6.6,0,0,1-.21-.52,1.33,1.33,0,0,1,.12-.55,2,2,0,0,1,.34-.51,2.88,2.88,0,0,1,.52-.45,3.57,3.57,0,0,1,.66-.35,4.29,4.29,0,0,1,.76-.23,4,4,0,0,1,.82-.08,2.29,2.29,0,0,1,.89.15,1.48,1.48,0,0,1,.58.42,1.69,1.69,0,0,1,.32.65,3.21,3.21,0,0,1,.1.82,5.4,5.4,0,0,1-.3,1.72,5.07,5.07,0,0,1-.39.86,3.21,3.21,0,0,1-.56.73,2.64,2.64,0,0,1-.75.5,2.28,2.28,0,0,1-.95.19,1.85,1.85,0,0,1-.58-.09,1.13,1.13,0,0,1-.45-.28,1.28,1.28,0,0,1-.3-.5,2.3,2.3,0,0,1-.11-.74,4.94,4.94,0,0,1,.06-.73,6.3,6.3,0,0,1,.18-.82,6,6,0,0,1,.3-.81,3.52,3.52,0,0,1,.42-.71,2.08,2.08,0,0,1,.54-.5,1.22,1.22,0,0,1,.66-.19h.2Z" transform="translate(-179.57 -92.5)"/><path class="cls-1" d="M209.11,101.5l1.09-5.09,1.18-.16-1,4.48a.76.76,0,0,0,.46.16.75.75,0,0,0,.45-.15,1.53,1.53,0,0,0,.38-.4,3.09,3.09,0,0,0,.3-.6,5.54,5.54,0,0,0,.22-.74,7,7,0,0,0,.14-.81,7.34,7.34,0,0,0,0-.82,2.49,2.49,0,0,0-.08-.69,1.26,1.26,0,0,0-.24-.47.92.92,0,0,0-.37-.27,1.3,1.3,0,0,0-.48-.08,2.51,2.51,0,0,0-.83.13,1.93,1.93,0,0,0-.66.38,1.79,1.79,0,0,0-.44.61,2,2,0,0,0-.16.82,1.42,1.42,0,0,0,0,.25,1.06,1.06,0,0,0,0,.15l0,.09a.12.12,0,0,1,0,.05,1,1,0,0,1-.63-.17.67.67,0,0,1-.23-.57,1.41,1.41,0,0,1,.11-.54,1.89,1.89,0,0,1,.3-.5,2.54,2.54,0,0,1,.47-.43,3.26,3.26,0,0,1,.6-.34,3.65,3.65,0,0,1,.71-.22,3.8,3.8,0,0,1,.79-.08,2.6,2.6,0,0,1,.7.09,2,2,0,0,1,.55.24,1.7,1.7,0,0,1,.41.37,2,2,0,0,1,.28.47,2.51,2.51,0,0,1,.16.55,3.47,3.47,0,0,1,.05.6,5.23,5.23,0,0,1-.08.92,5.77,5.77,0,0,1-.23.88,4.87,4.87,0,0,1-.35.79,3.41,3.41,0,0,1-.45.63,2.08,2.08,0,0,1-.53.42,1.18,1.18,0,0,1-.58.15,1.22,1.22,0,0,1-.48-.1,1.91,1.91,0,0,1-.5-.32l-.07.32Z" transform="translate(-179.57 -92.5)"/><path class="cls-1" d="M217.53,100.14a2.48,2.48,0,0,1-.41.63,2.63,2.63,0,0,1-1.22.77,2.52,2.52,0,0,1-.71.1,1.74,1.74,0,0,1-.67-.12,1.22,1.22,0,0,1-.72-.76,1.66,1.66,0,0,1-.09-.54,2.17,2.17,0,0,1,.1-.64,2.4,2.4,0,0,1,.29-.62,2.14,2.14,0,0,1,.46-.5,1.67,1.67,0,0,1,.62-.31,1.12,1.12,0,0,1-.37-.44,1.24,1.24,0,0,1-.12-.52,1.55,1.55,0,0,1,.13-.62,1.87,1.87,0,0,1,.36-.55,1.83,1.83,0,0,1,.55-.4,1.63,1.63,0,0,1,.71-.15,1.51,1.51,0,0,1,.45.06,1.09,1.09,0,0,1,.37.19.87.87,0,0,1,.24.31,1,1,0,0,1,.09.43,1.13,1.13,0,0,1,0,.33.87.87,0,0,1-.13.26.62.62,0,0,1-.19.17.45.45,0,0,1-.23.06.46.46,0,0,1-.37-.21.32.32,0,0,0,.13-.1.83.83,0,0,0,.11-.17,1,1,0,0,0,.08-.21.94.94,0,0,0,0-.22.5.5,0,0,0,0-.21.4.4,0,0,0-.1-.14.37.37,0,0,0-.14-.08l-.16,0a.6.6,0,0,0-.33.1.91.91,0,0,0-.26.26,1.3,1.3,0,0,0-.17.36,1.44,1.44,0,0,0-.06.41,1.33,1.33,0,0,0,0,.34,1,1,0,0,0,.14.31,1,1,0,0,0,.25.25,1.19,1.19,0,0,0,.37.17,1.41,1.41,0,0,0-.4.16,1.83,1.83,0,0,0-.35.26,2,2,0,0,0-.28.33,2.44,2.44,0,0,0-.21.38,2.22,2.22,0,0,0-.13.4,1.67,1.67,0,0,0,0,.38,1.13,1.13,0,0,0,0,.32.71.71,0,0,0,.13.26.61.61,0,0,0,.23.17.88.88,0,0,0,.35.06,1.72,1.72,0,0,0,.4-.05,1.89,1.89,0,0,0,.79-.41,1.32,1.32,0,0,0,.29-.36Z" transform="translate(-179.57 -92.5)"/><path class="cls-1" d="M222.23,101.5,222,93.3a2.72,2.72,0,0,0-1.32,1,2.85,2.85,0,0,0-.47,1.68,2.13,2.13,0,0,0,0,.37,1.63,1.63,0,0,0,.06.23.83.83,0,0,0,.06.13.17.17,0,0,1,0,.08,2.23,2.23,0,0,1-.55-.06,1,1,0,0,1-.4-.2.85.85,0,0,1-.25-.36,1.55,1.55,0,0,1-.08-.55,1.91,1.91,0,0,1,.17-.79,2.93,2.93,0,0,1,.47-.73,4.16,4.16,0,0,1,.71-.64,5.23,5.23,0,0,1,1.85-.84,4.37,4.37,0,0,1,1-.12h.25l.23,0,.11,7.38,2.53-7.35h.84L224,101.5Z" transform="translate(-179.57 -92.5)"/><path class="cls-1" d="M230.32,100.14a2.48,2.48,0,0,1-.41.63,2.63,2.63,0,0,1-1.22.77,2.52,2.52,0,0,1-.71.1,1.74,1.74,0,0,1-.67-.12,1.22,1.22,0,0,1-.72-.76,1.66,1.66,0,0,1-.09-.54,2.17,2.17,0,0,1,.1-.64,2.4,2.4,0,0,1,.29-.62,2.14,2.14,0,0,1,.46-.5,1.67,1.67,0,0,1,.62-.31,1.12,1.12,0,0,1-.37-.44,1.24,1.24,0,0,1-.12-.52,1.55,1.55,0,0,1,.13-.62A1.87,1.87,0,0,1,228,96a1.83,1.83,0,0,1,.55-.4,1.63,1.63,0,0,1,.71-.15,1.51,1.51,0,0,1,.45.06,1.09,1.09,0,0,1,.37.19.87.87,0,0,1,.24.31,1,1,0,0,1,.09.43,1.13,1.13,0,0,1,0,.33.87.87,0,0,1-.13.26.62.62,0,0,1-.19.17.45.45,0,0,1-.23.06.46.46,0,0,1-.37-.21.32.32,0,0,0,.13-.1.83.83,0,0,0,.11-.17,1,1,0,0,0,.08-.21.94.94,0,0,0,0-.22.5.5,0,0,0,0-.21.4.4,0,0,0-.1-.14.37.37,0,0,0-.14-.08l-.16,0a.6.6,0,0,0-.33.1.91.91,0,0,0-.26.26,1.3,1.3,0,0,0-.17.36,1.44,1.44,0,0,0-.06.41,1.33,1.33,0,0,0,0,.34,1,1,0,0,0,.14.31A1,1,0,0,0,229,98a1.19,1.19,0,0,0,.37.17,1.41,1.41,0,0,0-.4.16,1.83,1.83,0,0,0-.35.26,2,2,0,0,0-.28.33,2.44,2.44,0,0,0-.21.38,2.22,2.22,0,0,0-.13.4,1.67,1.67,0,0,0,0,.38,1.13,1.13,0,0,0,0,.32.71.71,0,0,0,.13.26.61.61,0,0,0,.23.17.88.88,0,0,0,.35.06,1.72,1.72,0,0,0,.4-.05,1.89,1.89,0,0,0,.79-.41,1.32,1.32,0,0,0,.29-.36Z" transform="translate(-179.57 -92.5)"/><path class="cls-1" d="M235.86,95.52l-1.3,6h-1.11l-.93-4-.91,4h-.76l1.2-5.48a1.61,1.61,0,0,0-.83.61,1.74,1.74,0,0,0-.28,1,1.84,1.84,0,0,0,.06.47,1,1,0,0,0,.16.35,1.14,1.14,0,0,1-.76-.21.82.82,0,0,1-.24-.66,1.74,1.74,0,0,1,.09-.55,2,2,0,0,1,.25-.5,2.18,2.18,0,0,1,.38-.43,2.47,2.47,0,0,1,.49-.33,2.66,2.66,0,0,1,1.22-.29l.33,0,.31.08,1,4.28.89-4.34Z" transform="translate(-179.57 -92.5)"/><path class="cls-1" d="M236.72,101.5l1.13-5.3h-.09a2.32,2.32,0,0,0-.59.07,1.14,1.14,0,0,0-.48.25,1.21,1.21,0,0,0-.32.49,2.34,2.34,0,0,0-.12.8,1.42,1.42,0,0,0,0,.25,1.06,1.06,0,0,0,0,.15l0,.09a.12.12,0,0,1,0,.05,1.49,1.49,0,0,1-.37,0,.67.67,0,0,1-.27-.13.56.56,0,0,1-.16-.24,1,1,0,0,1-.06-.36,2.1,2.1,0,0,1,.15-.78,1.74,1.74,0,0,1,.47-.67,2.43,2.43,0,0,1,.85-.46,4,4,0,0,1,1.26-.18h.43l.35,0,.31,0,.29,0,.31,0h.36a2.56,2.56,0,0,0,.52-.05,2.39,2.39,0,0,0,.41-.12,1.09,1.09,0,0,1-.27.77,1,1,0,0,1-.73.24,3.42,3.42,0,0,1-.6-.05l-.64-.12-1.11,5.14Z" transform="translate(-179.57 -92.5)"/><path class="cls-1" d="M242.44,101.5l.61-2.9a3.15,3.15,0,0,0-.56-.2,3.41,3.41,0,0,0-.51-.09q-.23.49-.42,1t-.33,1q-.14.49-.22.91a4.15,4.15,0,0,0-.08.74,1,1,0,0,0,0,.29.51.51,0,0,0,.08.15l-.35,0a1,1,0,0,1-.35-.1.66.66,0,0,1-.27-.25.91.91,0,0,1-.11-.48,2.94,2.94,0,0,1,.08-.64,6.62,6.62,0,0,1,.24-.8q.16-.43.37-.89t.48-.92a2.14,2.14,0,0,0-.62.12.51.51,0,0,0-.32.3s0,0,.07.08a.4.4,0,0,1,0,.17.26.26,0,0,1-.13.23.58.58,0,0,1-.32.08.63.63,0,0,1-.2,0,.46.46,0,0,1-.16-.09.39.39,0,0,1-.11-.14.5.5,0,0,1,0-.21.67.67,0,0,1,.12-.38,1.09,1.09,0,0,1,.34-.31,2,2,0,0,1,.52-.21,2.56,2.56,0,0,1,.65-.08l.42,0a10.48,10.48,0,0,1,.64-.91,6.09,6.09,0,0,1,.7-.75,3.56,3.56,0,0,1,.72-.51,1.54,1.54,0,0,1,.71-.19l.31,0a1.11,1.11,0,0,1,.32.09l-1.25,5.89Zm1.15-5.43a1.67,1.67,0,0,0-.37.28,3.47,3.47,0,0,0-.37.43q-.18.25-.36.55t-.35.64l.49.12a4.47,4.47,0,0,1,.48.16Z" transform="translate(-179.57 -92.5)"/></svg>